<svg width="1629" height="225" viewBox="0 0 1629 225" fill="none" xmlns="http://www.w3.org/2000/svg">
<path d="M459.461 211.438C429.023 204.497 419.552 158.447 418.295 132.28C418.246 131.277 416.798 131.032 416.434 131.969L410.938 146.124C406.336 157.976 397.124 169.939 384.656 167.209C382.325 166.699 379.969 165.822 377.684 164.458C369.247 159.421 364.132 143.919 361.851 133.234C361.634 132.217 360.014 132.222 359.837 133.247C358.144 143.066 355.429 158.907 353.235 172.009C352.214 178.107 350.411 183.223 348.199 187.545C339.788 203.981 320.464 212.95 301.99 211.484C284.686 210.111 267.346 201.18 262.185 175.364C251.775 123.294 269.772 69.6608 286.634 41.9765C303.495 14.2922 330.189 13.9408 345.364 15.1312C350.668 15.5473 356.413 17.6426 361.62 20.3713C373.628 26.6648 380 39.2014 384.566 51.9226L388.868 63.909C389.264 65.0121 390.991 64.9016 391.292 63.7692C393.265 56.3507 397.424 44.8481 401.849 36.5915C409.043 23.1689 418.994 17.9276 424.896 15.1312C440.914 8.69951 477.84 8.92322 497.399 61.2716C516.958 113.62 514.541 163.619 510.888 182.076C507.969 196.825 491.835 218.82 459.461 211.438Z" fill="white"/>
<path d="M1017.38 211.087C987.234 204.149 977.842 158.144 976.589 131.97C976.54 130.965 975.088 130.721 974.726 131.661L969.295 145.775C964.735 157.627 955.543 169.651 943.113 166.827C940.848 166.312 938.561 165.444 936.342 164.107C927.995 159.078 922.929 143.619 920.663 132.935C920.447 131.917 918.822 131.923 918.647 132.949C916.968 142.772 914.284 158.579 912.113 171.657C911.118 177.65 909.377 182.694 907.237 186.968C898.93 203.558 879.498 212.709 860.945 211.101C843.925 209.625 826.959 200.636 821.883 175.013C811.567 122.942 829.402 69.3095 846.112 41.6252C862.821 13.941 889.275 13.5895 904.313 14.78C909.567 15.1958 915.257 17.2893 920.414 20.016C932.339 26.32 938.627 38.8226 943.133 51.4915L947.411 63.517C947.804 64.6238 949.538 64.5135 949.838 63.3781C951.797 55.9582 955.912 44.482 960.289 36.2403C967.419 22.8176 977.28 17.5763 983.128 14.78C999.002 8.34826 1035.6 8.57197 1054.98 60.9204C1074.36 113.269 1071.97 163.268 1068.35 181.724C1065.45 196.473 1049.46 218.469 1017.38 211.087Z" fill="white"/>
<path d="M1574.33 222.838C1543.89 215.897 1534.42 169.847 1533.16 143.681C1533.11 142.677 1531.66 142.433 1531.3 143.37L1525.8 157.524C1521.2 169.377 1511.99 181.339 1499.52 178.61C1497.19 178.099 1494.83 177.223 1492.55 175.859C1484.11 170.821 1479 155.32 1476.72 144.634C1476.5 143.618 1474.88 143.623 1474.7 144.647C1473.01 154.467 1470.3 170.307 1468.1 183.409C1467.08 189.507 1465.28 194.623 1463.07 198.945C1454.65 215.382 1435.33 224.351 1416.86 222.885C1399.55 221.512 1382.21 212.58 1377.05 186.765C1366.64 134.694 1384.64 81.0613 1401.5 53.377C1418.36 25.6927 1445.06 25.3413 1460.23 26.5317C1465.53 26.9478 1471.28 29.0431 1476.49 31.7718C1488.49 38.0653 1494.87 50.6019 1499.43 63.3231L1503.73 75.3095C1504.13 76.4126 1505.86 76.3021 1506.16 75.1697C1508.13 67.7512 1512.29 56.2486 1516.72 47.992C1523.91 34.5694 1533.86 29.3281 1539.76 26.5317C1555.78 20.1 1592.71 20.3237 1612.27 72.6722C1631.82 125.021 1629.41 175.02 1625.75 193.476C1622.83 208.225 1606.7 230.221 1574.33 222.838Z" fill="white"/>
<path fill-rule="evenodd" clip-rule="evenodd" d="M11.0342 159.191C-8.49437 116.294 2.89729 64.2373 11.0342 43.5709C37.3569 -15.5673 170.974 -10.4584 211.348 41.4665C225.333 55.1046 237.517 82.6678 242.485 115.58C249.899 164.702 248.215 205.674 216.867 210.361C205.024 212.132 193.535 207.91 183.841 192.195C160.615 213.187 119.047 214.839 96.893 212.812C76.4103 212.812 30.5627 202.087 11.0342 159.191ZM93.8535 128.455C87.8842 121.813 84.4263 101.961 84.4263 91.8682C84.4263 85.9807 87.3749 67.0787 104.628 69.1591C124.858 71.5987 124.842 82.4875 124.83 91.218L124.829 91.8682C124.829 100.699 124.829 122.147 119.442 128.455C114.055 134.763 102.189 137.729 93.8535 128.455Z" fill="white"/>
<path fill-rule="evenodd" clip-rule="evenodd" d="M569.984 159.191C550.455 116.294 561.847 64.2373 569.984 43.5709C596.306 -15.5662 729.919 -10.4586 770.295 41.4636C784.282 55.1007 796.467 82.6655 801.435 115.579C808.85 164.702 807.166 205.674 775.818 210.361C763.974 212.132 752.485 207.91 742.791 192.195C719.565 213.186 677.997 214.839 655.843 212.812C635.36 212.812 589.512 202.087 569.984 159.191ZM652.803 128.455C646.834 121.813 643.376 101.961 643.376 91.8681C643.376 85.9806 646.325 67.0786 663.577 69.1591C683.808 71.5987 683.792 82.4875 683.779 91.218L683.779 91.8681C683.779 100.699 683.779 122.147 678.392 128.455C673.005 134.763 661.139 137.729 652.803 128.455Z" fill="white"/>
<path fill-rule="evenodd" clip-rule="evenodd" d="M1126.64 170.591C1107.11 127.695 1118.51 75.6378 1126.64 54.9714C1152.97 -4.16817 1286.59 0.94239 1326.96 52.8706C1340.94 66.51 1353.13 94.0712 1358.09 126.98C1365.51 176.102 1363.82 217.074 1332.47 221.762C1320.63 223.533 1309.14 219.31 1299.45 203.596C1276.22 224.587 1234.66 226.24 1212.5 224.212C1192.02 224.212 1146.17 213.488 1126.64 170.591ZM1209.46 139.855C1203.49 133.214 1200.03 113.362 1200.03 103.269C1200.03 97.3811 1202.98 78.4792 1220.24 80.5596C1240.47 82.9992 1240.45 93.888 1240.44 102.618L1240.44 103.269C1240.44 112.1 1240.44 133.547 1235.05 139.855C1229.66 146.164 1217.8 149.13 1209.46 139.855Z" fill="white"/>
</svg>
