<svg width="60" height="67" viewBox="0 0 60 67" fill="none" xmlns="http://www.w3.org/2000/svg">
<g clip-path="url(#clip0_160_2292)">
<path d="M7.9512 59.2358C7.9512 61.3532 6.40231 62.8477 4.23686 62.8477C2.19495 62.8477 0.508789 61.5051 0.508789 58.862V57.561C0.508789 55.0144 1.7288 53.1635 3.99035 52.7348L7.33105 52.3164V53.6729L4.3055 54.0365C2.93508 54.3132 2.09886 55.1982 2.01649 57.0389C2.53696 55.9868 3.55165 55.7077 4.48396 55.7077C6.48468 55.7071 7.9512 57.1323 7.9512 59.2358ZM6.41604 59.2219C6.41604 57.9486 5.51118 57.0353 4.25058 57.0353C2.97566 57.0353 2.0714 57.9486 2.0714 59.2219C2.0714 60.523 2.97566 61.4225 4.25058 61.4225C5.51118 61.4225 6.41604 60.523 6.41604 59.2219Z" fill="#9F9F9F"/>
<path d="M16.1062 59.6512C16.1116 59.4252 16.1062 59.2081 16.0913 58.9989C15.917 56.6705 14.4559 55.3888 12.4772 55.3888C10.3637 55.3888 8.84766 57.0076 8.84766 59.14C8.84766 61.381 10.4306 62.8623 12.5877 62.8623C14.1819 62.8623 15.4497 61.9205 15.889 60.7111H14.3753C14.0267 61.1886 13.4358 61.5479 12.6008 61.5479C11.4267 61.5479 10.5135 60.772 10.4174 59.6512H16.1062ZM10.418 58.4473C10.4986 57.4242 11.3593 56.6766 12.4772 56.6766C13.6382 56.6766 14.4559 57.4374 14.4971 58.4473H10.418Z" fill="#9F9F9F"/>
<path d="M16.6329 61.3531C17.1814 61.3254 17.7568 61.0209 17.7568 59.8724V55.5406H23.3387V62.7229H21.7899V56.952H19.2782V59.8996C19.2782 61.8921 18.1131 62.7916 16.6191 62.7645L16.6329 61.3531Z" fill="#9F9F9F"/>
<path d="M27.5707 58.8903L30.9789 55.5406H29.1745L27.2902 57.3879L26.2295 58.4279V55.5406H26.2057H24.7714H24.6807V62.7235H24.7714H26.2057H26.2295V59.3546L27.2735 60.5416L29.1894 62.7235H30.9914L27.5707 58.8903Z" fill="#9F9F9F"/>
<path d="M37.1761 55.5341L36.9875 56.6012C36.3769 55.8476 35.3276 55.3954 34.3833 55.3954C34.372 55.3954 34.3618 55.3966 34.3505 55.3966C34.3338 55.3966 34.3177 55.3954 34.301 55.3954C33.2743 55.3954 32.4381 55.7746 31.84 56.392C31.8108 56.4215 31.781 56.4498 31.7529 56.48C31.7362 56.4987 31.7207 56.5186 31.7046 56.5379C31.1286 57.1962 30.8057 58.0933 30.8057 59.1183C30.8057 59.1231 30.8063 59.1273 30.8063 59.1321C30.8063 59.1369 30.8057 59.1412 30.8057 59.146C30.8057 60.1709 31.1286 61.068 31.7046 61.7264C31.7207 61.7457 31.7362 61.7656 31.7529 61.7842C31.781 61.815 31.8108 61.8427 31.84 61.8723C32.4381 62.4896 33.2743 62.8689 34.301 62.8689C34.3177 62.8689 34.3338 62.8676 34.3505 62.8676C34.3618 62.8676 34.372 62.8689 34.3833 62.8689C35.3276 62.8689 36.3769 62.4167 36.9875 61.6631V62.7302H38.5638V62.7163V55.5479V55.5341H37.1761ZM34.6991 61.4291C33.3561 61.4291 32.3963 60.4742 32.3963 59.1321C32.3963 57.7895 33.3561 56.8351 34.6991 56.8351C36.0289 56.8351 36.9743 57.8317 36.9743 59.1321C36.9743 60.4326 36.0283 61.4291 34.6991 61.4291Z" fill="#9F9F9F"/>
<path d="M39.9033 55.5341V55.5479V65.9502V65.9641H41.4797V61.6631C42.0903 62.4167 43.1396 62.8689 44.0838 62.8689C44.0952 62.8689 44.1053 62.8676 44.1166 62.8676C44.1334 62.8676 44.1495 62.8689 44.1662 62.8689C45.1928 62.8689 46.029 62.4896 46.6271 61.8723C46.6563 61.8427 46.6862 61.8144 46.7142 61.7842C46.7309 61.7656 46.7465 61.7457 46.7626 61.7264C47.3386 61.068 47.6615 60.1709 47.6615 59.146C47.6615 59.1412 47.6609 59.1369 47.6609 59.1321C47.6609 59.1273 47.6615 59.1231 47.6615 59.1183C47.6615 58.0933 47.3386 57.1962 46.7626 56.5379C46.7465 56.5186 46.7309 56.4987 46.7142 56.48C46.6862 56.4492 46.6563 56.4215 46.6271 56.392C46.029 55.7746 45.1928 55.3954 44.1662 55.3954C44.1495 55.3954 44.1334 55.3966 44.1166 55.3966C44.1053 55.3966 44.0952 55.3954 44.0838 55.3954C43.1396 55.3954 42.0903 55.8476 41.4797 56.6012L41.291 55.5341H39.9033ZM41.4934 59.1321C41.4934 57.8311 42.4394 56.8351 43.7687 56.8351C45.1116 56.8351 46.0714 57.7901 46.0714 59.1321C46.0714 60.4748 45.1116 61.4291 43.7687 61.4291C42.4388 61.4291 41.4934 60.4326 41.4934 59.1321Z" fill="#9F9F9F"/>
<path d="M59.3978 58.2435V62.7332H57.8328V58.6456C57.8328 57.3428 57.1738 56.761 56.2958 56.761C55.3898 56.761 54.704 57.3705 54.704 58.6456V62.7332H53.1396V58.6456C53.1396 57.3428 52.4669 56.761 51.6163 56.761C50.6972 56.761 50.0107 57.3705 50.0107 58.6456V62.7332H48.4326V55.5413H49.809L49.9875 56.5783C50.3993 55.844 51.0815 55.3888 52.138 55.3888C53.0984 55.3888 53.8857 55.7885 54.3106 56.5783C54.7774 55.844 55.5551 55.3888 56.7083 55.3888C58.3133 55.3888 59.3978 56.4836 59.3978 58.2435Z" fill="#9F9F9F"/>
<path d="M27.5245 37.1809L20.0767 44.5579C19.5777 45.0522 19.5837 45.6865 19.7568 46.1158C19.9299 46.5444 20.3632 47.0038 21.0622 47.0062L34.1665 47.0484C35.1746 47.0514 36.0102 46.2255 36.0287 45.2072C36.0299 45.1529 36.0305 45.0981 36.0305 45.0438C36.0395 42.1439 34.8995 39.3067 32.888 37.2345C31.4239 35.7255 29.0179 35.702 27.5245 37.1809Z" fill="#9F9F9F"/>
<path d="M18.9727 31.571L8.54234 31.4679C7.8434 31.4606 7.4035 31.914 7.22564 32.3409C7.04777 32.7677 7.03285 33.4019 7.52527 33.9029L16.7625 43.2924C17.4733 44.0147 18.642 44.0273 19.3684 43.3201C19.4072 43.2828 19.446 43.2442 19.4842 43.2062C21.5201 41.1624 22.7008 38.3414 22.7288 35.4397C22.7491 33.3266 21.0641 31.5915 18.9727 31.571Z" fill="#9F9F9F"/>
<path d="M8.90841 30.0866C8.96213 30.0879 9.01645 30.0885 9.07017 30.0885C11.9411 30.0975 14.75 28.946 16.8015 26.9142C18.2948 25.4353 18.3181 23.0051 16.854 21.4966L9.55065 13.9737C9.06121 13.4697 8.4333 13.4757 8.00833 13.6506C7.58395 13.8248 7.12913 14.2631 7.12675 14.9691L7.08497 28.2056C7.08258 29.2245 7.90029 30.068 8.90841 30.0866Z" fill="#9F9F9F"/>
<path d="M10.8887 13.375C12.9121 15.4315 15.7048 16.624 18.5776 16.6523C20.669 16.6728 22.3868 14.9715 22.4071 12.8589L22.5092 2.32336C22.5163 1.61737 22.0675 1.17304 21.6449 0.99338C21.2223 0.813718 20.5944 0.798646 20.0984 1.29603L10.8033 10.6264C10.0883 11.3445 10.0757 12.5249 10.7759 13.2586C10.8129 13.2972 10.8511 13.3364 10.8887 13.375Z" fill="#9F9F9F"/>
<path d="M32.3817 10.7186L39.8295 3.34164C40.3284 2.84727 40.3225 2.21303 40.1494 1.78377C39.9769 1.35511 39.543 0.895704 38.844 0.893292L25.7391 0.851693C24.731 0.848678 23.8953 1.67464 23.8768 2.69293C23.8756 2.74719 23.8751 2.80205 23.8751 2.85631C23.8661 5.75623 25.0061 8.59345 27.0176 10.6656C28.4823 12.1734 30.8883 12.1975 32.3817 10.7186Z" fill="#9F9F9F"/>
<path d="M40.9335 16.3286L51.3638 16.4317C52.0627 16.4389 52.5026 15.9856 52.6805 15.5587C52.8584 15.1319 52.8733 14.4976 52.3809 13.9966L43.1437 4.60715C42.4328 3.88488 41.2641 3.87222 40.5377 4.57942C40.4989 4.6168 40.4601 4.65538 40.4225 4.69336C38.3866 6.73717 37.206 9.55811 37.1779 12.4598C37.157 14.5724 38.842 16.3075 40.9335 16.3286Z" fill="#9F9F9F"/>
<path d="M50.9973 17.8129C50.9436 17.8117 50.8893 17.8111 50.8356 17.8111C47.9646 17.802 45.1557 18.9536 43.1043 20.9853C41.6109 22.4642 41.5876 24.8945 43.0517 26.4029L50.3551 33.9258C50.8445 34.4298 51.4724 34.4238 51.8974 34.249C52.3218 34.0747 52.7766 33.6364 52.779 32.9304L52.8208 19.6939C52.8231 18.675 52.0054 17.831 50.9973 17.8129Z" fill="#9F9F9F"/>
<path d="M49.0171 34.5245C46.9937 32.468 44.2009 31.2755 41.3282 31.2471C39.2367 31.2266 37.5189 32.928 37.4986 35.0405L37.3966 45.5761C37.3894 46.2821 37.8383 46.7264 38.2608 46.9061C38.6834 47.0857 39.3113 47.1008 39.8073 46.6034L49.103 37.2731C49.8181 36.555 49.8306 35.3745 49.1305 34.6408C49.0929 34.6022 49.0547 34.563 49.0171 34.5245Z" fill="#9F9F9F"/>
</g>
<defs>
<clipPath id="clip0_160_2292">
<rect width="59.747" height="66.103" fill="white" transform="translate(0.0800781 0.356079)"/>
</clipPath>
</defs>
</svg>
