<svg width="28" height="28" viewBox="0 0 28 28" fill="none" xmlns="http://www.w3.org/2000/svg">
<circle cx="14" cy="14" r="14" fill="#0033D9"/>
<path d="M11.6673 20.4168C11.9895 20.4168 12.2507 20.1557 12.2507 19.8335C12.2507 19.5114 11.9895 19.2502 11.6673 19.2502C11.3452 19.2502 11.084 19.5114 11.084 19.8335C11.084 20.1557 11.3452 20.4168 11.6673 20.4168Z" stroke="#F7F7F7" stroke-linecap="round" stroke-linejoin="round"/>
<path d="M18.0833 20.4168C18.4055 20.4168 18.6667 20.1557 18.6667 19.8335C18.6667 19.5114 18.4055 19.2502 18.0833 19.2502C17.7612 19.2502 17.5 19.5114 17.5 19.8335C17.5 20.1557 17.7612 20.4168 18.0833 20.4168Z" stroke="#F7F7F7" stroke-linecap="round" stroke-linejoin="round"/>
<path d="M7 8.16669H9.33333L10.8967 15.9775C10.95 16.2461 11.0961 16.4873 11.3094 16.659C11.5227 16.8307 11.7896 16.9219 12.0633 16.9167H17.7333C18.0071 16.9219 18.274 16.8307 18.4873 16.659C18.7006 16.4873 18.8467 16.2461 18.9 15.9775L19.8333 11.0834H9.91667" stroke="#F7F7F7" stroke-width="1.16667" stroke-linecap="round" stroke-linejoin="round"/>
</svg>
