<svg width="16" height="16" viewBox="0 0 16 16" fill="none" xmlns="http://www.w3.org/2000/svg">
<path fill-rule="evenodd" clip-rule="evenodd" d="M6.45733 1.17211C7.92972 0.839444 9.47019 0.991643 10.849 1.60601C11.1012 1.7184 11.3968 1.60503 11.5092 1.35279C11.6216 1.10056 11.5082 0.804969 11.256 0.69258C9.68021 -0.00955141 7.91967 -0.183493 6.23695 0.196696C4.55423 0.576885 3.03948 1.49083 1.91862 2.80224C0.797766 4.11364 0.13085 5.75223 0.0173414 7.47363C-0.0961671 9.19503 0.349813 10.907 1.28877 12.3542C2.22772 13.8015 3.60934 14.9064 5.22758 15.5042C6.84581 16.1021 8.61394 16.1608 10.2683 15.6717C11.9226 15.1826 13.3745 14.1718 14.4075 12.79C15.4404 11.4083 15.999 9.72972 16 8.00458V8.00429V7.31429C16 7.03815 15.7761 6.81429 15.5 6.81429C15.2239 6.81429 15 7.03815 15 7.31429L15 8.00401L15 8.00429C14.9991 9.51369 14.5103 10.9824 13.6065 12.1913C12.7027 13.4003 11.4323 14.2847 9.98475 14.7127C8.5372 15.1407 6.99008 15.0893 5.57413 14.5662C4.15818 14.0431 2.94926 13.0763 2.12767 11.81C1.30609 10.5436 0.915855 9.04565 1.01517 7.53943C1.11449 6.0332 1.69805 4.59944 2.6788 3.45196C3.65955 2.30448 4.98495 1.50478 6.45733 1.17211ZM15.8537 2.35767C16.0489 2.16231 16.0487 1.84573 15.8534 1.65056C15.658 1.4554 15.3414 1.45556 15.1463 1.65092L7.99983 8.80451L6.10356 6.90824C5.9083 6.71298 5.59171 6.71298 5.39645 6.90824C5.20119 7.1035 5.20119 7.42009 5.39645 7.61535L7.64645 9.86535C7.74025 9.95915 7.86748 10.0118 8.00013 10.0118C8.13278 10.0118 8.25998 9.95902 8.35373 9.86517L15.8537 2.35767Z" fill="#091230"/>
</svg>
