<svg width="20" height="20" viewBox="0 0 20 20" fill="none" xmlns="http://www.w3.org/2000/svg">
<path d="M9.94322 11.3281L15.6932 6.01562C15.7781 5.93055 15.843 5.8277 15.8833 5.71451C15.9236 5.60133 15.9383 5.48062 15.9264 5.36106C15.9144 5.24151 15.8761 5.12608 15.8142 5.02312C15.7522 4.92015 15.6682 4.83222 15.5682 4.76562C11.8182 2.57812 8.06822 2.57812 4.25572 4.76562C4.15571 4.83222 4.07173 4.92015 4.0098 5.02312C3.94787 5.12608 3.90954 5.24151 3.89759 5.36106C3.88563 5.48062 3.90034 5.60133 3.94065 5.71451C3.98097 5.8277 4.04588 5.93055 4.13072 6.01562L9.94322 11.3281Z" stroke="#091230" stroke-width="1.5" stroke-linecap="round" stroke-linejoin="round"/>
<path d="M9.94338 11.3281H2.31838C2.14603 11.3291 1.97603 11.2881 1.82305 11.2087C1.67008 11.1293 1.53871 11.0139 1.44029 10.8724C1.34186 10.7309 1.27934 10.5676 1.2581 10.3966C1.23686 10.2255 1.25755 10.0519 1.31838 9.89062C1.80407 8.32244 2.84962 6.9877 4.25588 6.14062" stroke="#091230" stroke-width="1.5" stroke-linecap="round" stroke-linejoin="round"/>
<path d="M9.94336 11.3281H17.5059C17.6782 11.3291 17.8482 11.2881 18.0012 11.2087C18.1542 11.1293 18.2855 11.0139 18.3839 10.8724C18.4824 10.7309 18.5449 10.5676 18.5661 10.3966C18.5874 10.2255 18.5667 10.0519 18.5059 9.89062C18.0202 8.32244 16.9746 6.9877 15.5684 6.14062" stroke="#091230" stroke-width="1.5" stroke-linecap="round" stroke-linejoin="round"/>
<path d="M1.94319 11.3281C1.69319 13.1406 2.31819 14.9531 3.50569 16.7656L9.31819 11.3281" stroke="#091230" stroke-width="1.5" stroke-linecap="round" stroke-linejoin="round"/>
<path d="M17.8809 11.3281C18.1309 13.1406 17.5059 14.9531 16.3184 16.7656L10.5684 11.3281" stroke="#091230" stroke-width="1.5" stroke-linecap="round" stroke-linejoin="round"/>
</svg>
