<svg width="90" height="33" viewBox="0 0 90 33" fill="none" xmlns="http://www.w3.org/2000/svg">
<path fill-rule="evenodd" clip-rule="evenodd" d="M84.5295 12.7302C84.5295 11.7703 85.2907 10.9639 86.2041 10.9639C87.1556 10.9639 87.8788 11.7703 87.8788 12.7302C87.8788 13.6902 87.1556 14.4965 86.2041 14.4965C85.2907 14.5349 84.5295 13.7286 84.5295 12.7302ZM86.2041 14.1125C86.9273 14.1125 87.4601 13.4982 87.4601 12.7686C87.4601 12.0391 86.8892 11.4247 86.2041 11.4247C85.481 11.4247 84.9482 12.0391 84.9482 12.7686C84.9482 13.4982 85.5191 14.1125 86.2041 14.1125ZM85.9758 13.5366H85.6332V11.9623H86.2803C86.3944 11.9623 86.5467 11.9623 86.6609 12.0391C86.775 12.1159 86.8512 12.2695 86.8512 12.423C86.8512 12.615 86.737 12.7686 86.5847 12.807L86.8512 13.4982H86.4706L86.2422 12.8838H85.9758V13.5366ZM85.9758 12.6534H86.1661C86.2422 12.6534 86.3183 12.6534 86.3564 12.615C86.3944 12.5766 86.4325 12.4998 86.4325 12.423C86.4325 12.3847 86.3944 12.3079 86.3564 12.2695C86.3183 12.2311 86.2041 12.2311 86.1661 12.2311H85.9758C86.0138 12.2695 85.9758 12.6534 85.9758 12.6534ZM60.5896 0.942249L60.1329 3.97564C59.1433 3.43807 58.4202 3.24609 57.6209 3.24609C55.5276 3.24609 54.0813 5.39634 54.0813 8.42973C54.0813 10.5416 55.0709 11.8087 56.7075 11.8087C57.3925 11.8087 58.1537 11.5783 59.1052 11.0791L58.6105 14.2661C57.5828 14.5733 56.8978 14.6885 56.1366 14.6885C53.1298 14.6885 51.2268 12.3847 51.2268 8.69851C51.2268 3.74525 53.8149 0.251099 57.5448 0.251099C58.0396 0.251099 58.4582 0.289494 58.8008 0.404686L59.9806 0.711865C60.2471 0.827057 60.3232 0.827057 60.5896 0.942249ZM51.2648 3.0157C51.1887 2.97731 51.0745 2.97731 50.9984 2.97731C50.085 2.97731 49.5521 3.47647 48.6767 4.82038L48.9432 3.0925H46.3931L44.6804 14.3813H47.4969C48.5245 7.46979 48.7529 6.27948 50.123 6.27948H50.3133C50.5797 4.93557 50.8842 3.93724 51.379 3.0157H51.2648ZM34.5183 14.2277C33.7571 14.4965 33.1482 14.6117 32.5011 14.6117C31.0929 14.6117 30.2936 13.7286 30.2936 12.1159C30.2936 11.8087 30.3317 11.4631 30.3698 11.0791L30.5601 9.96562L30.6742 9.08248L31.8922 1.36462H34.6706L34.328 3.0157H35.7743L35.3557 5.74191H33.9855L33.2243 10.5416C33.1862 10.7336 33.1862 10.8872 33.1862 11.0023C33.1862 11.5783 33.4907 11.8471 34.1377 11.8471C34.4803 11.8471 34.7086 11.8087 34.8989 11.7319L34.5183 14.2277ZM23.4428 6.66345C23.4428 8.08415 24.0898 9.08248 25.5742 9.81203C26.6779 10.388 26.9063 10.5416 26.9063 11.0791C26.9063 11.7703 26.4115 12.1159 25.3077 12.1159C24.4704 12.1159 23.7092 12.0007 22.7958 11.6551L22.4152 14.2661L22.5294 14.3045L23.0241 14.4197C23.2144 14.4581 23.4428 14.4965 23.7473 14.5349C24.3943 14.5733 24.9271 14.6501 25.3077 14.6501C28.2384 14.6501 29.6086 13.4598 29.6086 10.8872C29.6086 9.35126 29.0377 8.42973 27.6294 7.73858C26.4496 7.16262 26.3354 7.04742 26.3354 6.50986C26.3354 5.8955 26.7921 5.58832 27.7055 5.58832C28.2764 5.58832 28.9996 5.66512 29.7227 5.78031L30.1414 3.16929C29.3421 3.0157 28.5048 2.93891 27.6675 2.93891C24.5085 2.86212 23.4428 4.5516 23.4428 6.66345ZM82.931 14.3813H80.2667L80.3809 13.2678C79.6197 14.1509 78.8205 14.5349 77.7928 14.5349C75.7376 14.5349 74.4055 12.6534 74.4055 9.85043C74.4055 6.08749 76.4988 2.90051 78.9727 2.90051C80.0764 2.90051 80.8757 3.39968 81.675 4.4364L82.2839 0.481482H85.0623L82.931 14.3813ZM78.7824 11.7319C80.1145 11.7319 81.0279 10.1576 81.0279 7.93056C81.0279 6.50986 80.4951 5.70352 79.5436 5.70352C78.2876 5.70352 77.3742 7.27781 77.3742 9.50485C77.3361 10.964 77.8309 11.7319 78.7824 11.7319ZM43.3864 14.1509C42.4349 14.4581 41.4834 14.6117 40.4938 14.6117C37.3729 14.6117 35.7363 12.8838 35.7363 9.54325C35.7363 5.66512 37.8296 2.82372 40.646 2.82372C42.9677 2.82372 44.414 4.4364 44.414 6.93223C44.414 7.73857 44.2998 8.58332 44.0714 9.73524H38.4766C38.4385 9.92722 38.4385 10.004 38.4385 10.0808C38.4385 11.4247 39.2759 12.0775 40.9124 12.0775C41.902 12.0775 42.8155 11.8471 43.8431 11.3479C43.805 11.3479 43.3864 14.1509 43.3864 14.1509ZM41.8259 7.393C41.864 7.16262 41.864 6.97063 41.864 6.81704C41.864 5.8955 41.3692 5.35794 40.5318 5.35794C39.6565 5.35794 39.0094 6.08749 38.743 7.393H41.8259ZM12.177 14.3813H9.39857L10.9971 3.70686L7.38137 14.3813H5.47836L5.25 3.78365L3.53729 14.3813H0.911133L3.15669 0.481482H7.19107L7.30525 9.08248L10.0075 0.481482H14.3845L12.177 14.3813ZM19.4084 9.35126C19.1039 9.31286 18.9897 9.31287 18.7614 9.31287C17.1629 9.31287 16.3636 9.88882 16.3636 11.0407C16.3636 11.7319 16.7823 12.1927 17.3912 12.1927C18.533 12.1543 19.3704 11.0023 19.4084 9.35126ZM21.4637 14.3813H19.142L19.18 13.191C18.4569 14.1509 17.5435 14.5349 16.2494 14.5349C14.727 14.5349 13.6994 13.2678 13.6994 11.4631C13.6994 8.69851 15.5263 7.12422 18.6091 7.12422C18.9517 7.12422 19.3323 7.16262 19.751 7.20101C19.8271 6.81704 19.8651 6.66345 19.8651 6.47146C19.8651 5.74191 19.3704 5.43474 18.0763 5.43474C17.277 5.43474 16.3636 5.54993 15.7546 5.78031L15.336 5.8955L15.0695 5.9723L15.4501 3.43807C16.8584 3.0157 17.7718 2.82372 18.7994 2.82372C21.1972 2.82372 22.4913 3.97564 22.4913 6.12589C22.4913 6.70185 22.4532 7.08582 22.2629 8.39133L21.692 12.423L21.5778 13.1526L21.5017 13.7286L21.4637 14.1509C21.5017 14.0741 21.4637 14.3813 21.4637 14.3813ZM65.4232 9.35126C65.1568 9.31286 65.0046 9.31287 64.7762 9.31287C63.1777 9.31287 62.3784 9.88882 62.3784 11.0407C62.3784 11.7319 62.7971 12.1927 63.4061 12.1927C64.5479 12.1543 65.3852 11.0023 65.4232 9.35126ZM67.4404 14.3813H65.1188L65.1568 13.191C64.4337 14.1509 63.5202 14.5349 62.2262 14.5349C60.7038 14.5349 59.6761 13.2678 59.6761 11.4631C59.6761 8.69851 61.503 7.12422 64.5859 7.12422C64.8904 7.12422 65.3091 7.16262 65.7277 7.20101C65.8038 6.81704 65.8419 6.66345 65.8419 6.47146C65.8419 5.74191 65.3471 5.43474 64.0531 5.43474C63.2538 5.43474 62.3404 5.54993 61.7314 5.78031L61.3127 5.8955L61.0463 5.9723L61.4269 3.43807C62.8352 3.0157 63.7486 2.82372 64.7762 2.82372C67.174 2.82372 68.4681 3.97564 68.4681 6.12589C68.4681 6.70185 68.43 7.08582 68.2397 8.39133L67.6688 12.3847L67.5927 13.1142L67.5166 13.6902L67.4785 14.0741L67.4404 14.3813ZM75.2808 3.0157C75.2047 2.97731 75.0906 2.97731 75.0144 2.97731C74.101 2.97731 73.5681 3.47647 72.6928 4.82038L72.9592 3.0925H70.4091L68.6964 14.3813H71.5129C72.5405 7.46979 72.7689 6.27948 74.139 6.27948H74.3293C74.5196 5.12756 74.9003 4.05243 75.395 3.0157H75.2808Z" fill="#9F9F9F"/>
<path fill-rule="evenodd" clip-rule="evenodd" d="M63.5199 25.3238C63.5199 27.8964 62.7206 29.3939 61.5027 29.3939C60.5893 29.4323 60.0564 28.3956 60.0564 26.8981C60.0564 25.0934 60.8557 23.0583 62.1497 23.0583C63.1774 23.0583 63.5199 24.1719 63.5199 25.3238ZM66.2983 25.3622C66.2983 22.5208 64.8901 20.2937 62.302 20.2937C59.2952 20.2937 57.3161 22.9815 57.3161 26.9365C57.3161 29.7779 58.4959 32.1201 61.3124 32.1201C64.1669 32.1201 66.2983 30.085 66.2983 25.3622ZM58.1915 18.3355L57.7728 21.3689C56.8213 20.8313 56.1743 20.6393 55.4511 20.6393C53.51 20.6393 52.1399 22.7896 52.1399 25.8229C52.1399 27.9348 53.0533 29.2019 54.5757 29.2019C55.2228 29.2019 55.9459 28.9715 56.8213 28.4724L56.3646 31.6593C55.4131 31.9665 54.766 32.0817 54.0429 32.0817C51.2264 32.0817 49.4376 29.7779 49.4376 26.0917C49.4376 21.1385 51.8735 17.6443 55.3369 17.6443C55.7937 17.6443 56.1743 17.6827 56.5168 17.7979L57.5825 18.1051C57.887 18.1819 57.9631 18.2203 58.1915 18.3355ZM40.8741 20.3705C40.7979 20.3321 40.6837 20.3321 40.6076 20.3321C39.7322 20.3321 39.2755 20.8313 38.4382 22.1752L38.7046 20.4473H36.3449L34.7464 31.7361H37.3725C38.324 24.8246 38.5524 23.6343 39.8084 23.6343C39.8845 23.6343 39.8845 23.6343 39.9987 23.6727C40.227 22.3288 40.5696 21.3305 40.9882 20.4089L40.8741 20.3705ZM75.0521 31.6593H72.5782L72.6924 30.5458C71.9693 31.429 71.2081 31.8129 70.2566 31.8129C68.3535 31.8129 67.0976 29.9315 67.0976 27.1285C67.0976 23.3655 69.0386 20.1785 71.3603 20.1785C72.3879 20.1785 73.1491 20.6777 73.8723 21.7528L74.4432 17.7979H77.0313L75.0521 31.6593ZM71.17 29.0099C72.426 29.0099 73.2633 27.4356 73.2633 25.2086C73.2633 23.7879 72.7685 23.0199 71.8551 23.0199C70.6752 23.0199 69.8379 24.5942 69.8379 26.8213C69.8379 28.242 70.2946 29.0099 71.17 29.0099ZM16.3252 31.6209C15.4498 31.9281 14.5364 32.0817 13.6229 32.0817C10.6923 32.0817 9.16987 30.3538 9.16987 27.0133C9.16987 23.1351 11.1109 20.2937 13.7371 20.2937C15.9065 20.2937 17.2767 21.868 17.2767 24.4022C17.2767 25.2086 17.1625 26.0533 16.9342 27.2052H11.758C11.7199 27.3972 11.7199 27.474 11.7199 27.5508C11.7199 28.8563 12.5192 29.5091 14.0416 29.5091C14.9931 29.5091 15.8304 29.2787 16.7439 28.7795L16.3252 31.6209ZM14.8408 24.9014C14.8408 24.671 14.8789 24.479 14.8789 24.3254C14.8789 23.4039 14.4222 22.8663 13.6229 22.8663C12.7856 22.8663 12.2147 23.5959 11.9483 24.9014H14.8408ZM47.4585 31.6209C46.5831 31.9281 45.6696 32.0817 44.7562 32.0817C41.8256 32.0817 40.3032 30.3538 40.3032 27.0133C40.3032 23.1351 42.2442 20.2937 44.8704 20.2937C47.0398 20.2937 48.41 21.868 48.41 24.4022C48.41 25.2086 48.2958 26.0533 48.0674 27.2052H42.8532C42.8151 27.3972 42.8151 27.474 42.8151 27.5508C42.8151 28.8563 43.6144 29.5091 45.1368 29.5091C46.0883 29.5091 46.9256 29.2787 47.8391 28.7795L47.4585 31.6209ZM46.0122 24.9014C46.0502 24.671 46.0502 24.479 46.0502 24.3254C46.0502 23.4039 45.5935 22.8663 44.7943 22.8663C43.9569 22.8663 43.386 23.5959 43.1196 24.9014H46.0122ZM83.9963 31.6209C83.1209 31.9281 82.2075 32.0817 81.294 32.0817C78.3634 32.0817 76.841 30.3538 76.841 27.0133C76.841 23.1351 78.7821 20.2937 81.4463 20.2937C83.6157 20.2937 84.9859 21.868 84.9859 24.4022C84.9859 25.2086 84.8717 26.0533 84.6433 27.2052H79.4291C79.391 27.3972 79.391 27.474 79.391 27.5508C79.391 28.8563 80.1903 29.5091 81.7127 29.5091C82.6642 29.5091 83.5015 29.2787 84.415 28.7795L83.9963 31.6209ZM82.512 24.9014C82.512 24.671 82.55 24.479 82.55 24.3254C82.55 23.4039 82.0933 22.8663 81.294 22.8663C80.4567 22.8663 79.8858 23.5959 79.6194 24.9014H82.512ZM8.56091 20.9081C8.06612 20.5625 7.34298 20.2553 6.39147 20.2553C5.32579 20.2553 4.48846 20.4857 4.48846 21.5992C4.48846 23.5959 8.33255 22.8663 8.33255 27.1668C8.33255 31.0834 5.78251 32.1201 3.4989 32.1201C2.47127 32.1201 1.2914 31.7745 0.416016 31.3906L1.06304 28.5108C1.59588 29.0099 2.62351 29.3171 3.53696 29.3171C4.37428 29.3171 5.63027 29.0867 5.63027 27.6276C5.63027 25.3622 1.78619 26.2069 1.78619 22.2136C1.78619 18.5658 4.03174 17.4907 6.23923 17.4907C7.45716 17.4907 8.63703 17.6827 9.28405 18.1435L8.56091 20.9081ZM23.9753 31.6209C23.4425 31.8897 22.7193 32.0433 21.6536 32.0433C19.37 32.0433 17.9618 29.7395 17.9618 26.9365C17.9618 23.2503 20.017 20.3321 23.0238 20.3321C23.6708 20.3321 24.6984 20.6009 25.4977 21.0617L24.9268 23.7495C24.3559 23.3655 23.785 23.1351 23.176 23.1351C21.7678 23.1351 20.7782 24.4406 20.7782 26.7445C20.7782 28.0884 21.5014 29.1635 22.6432 29.1635C23.3283 29.1635 23.8231 29.0099 24.394 28.6643L23.9753 31.6209ZM33.7948 28.7795C33.6426 29.7395 33.5665 30.7378 33.4523 31.6977H30.9403L31.1306 29.8931H31.0926C30.2933 31.1218 29.494 31.9665 28.0478 31.9665C26.4873 31.9665 25.6119 30.277 25.6119 28.0884C25.6119 27.3204 25.65 26.8981 25.8022 25.7461L26.5253 20.5241H29.3418L28.5806 25.7845C28.5045 26.3605 28.3903 26.8981 28.3903 27.5124C28.3903 28.1652 28.6948 28.8563 29.456 28.7795C30.5978 28.7795 31.2829 27.3588 31.4732 25.7078L32.2724 20.5241H34.9747L33.7948 28.7795ZM86.5844 31.5441H86.1657V29.7011H85.5568V29.2787H87.1934V29.7011H86.5844V31.5441ZM89.4009 31.5441H88.9822V29.6627L88.6016 31.5441H88.1829L87.8023 29.6627V31.5441H87.3837V29.2787H88.0307L88.3732 31.0834H88.4113L88.7538 29.2787H89.3628C89.4009 29.2787 89.4009 31.5441 89.4009 31.5441Z" fill="#9F9F9F"/>
</svg>
