<svg width="65" height="21" viewBox="0 0 65 21" fill="none" xmlns="http://www.w3.org/2000/svg">
<path d="M46.7186 1.54946C45.2412 1.01113 43.6796 0.740998 42.1073 0.751775C37.0224 0.751775 33.4312 3.31327 33.4058 6.99025C33.374 9.69157 35.9578 11.2138 37.9123 12.1164C39.9176 13.0444 40.5882 13.6292 40.5818 14.4586C40.5691 15.7203 38.9801 16.2923 37.5023 16.2923C35.4715 16.2923 34.3624 16.0095 32.6558 15.3008L32.0234 15.0052L31.3019 19.2384C32.5382 19.7532 34.766 20.195 37.0669 20.2331C42.4727 20.2331 46.0067 17.6875 46.048 13.7753C46.0925 11.6175 44.6942 9.98713 41.7513 8.63964C39.9621 7.76569 38.8529 7.18093 38.8529 6.29426C38.8529 5.50928 39.8032 4.67029 41.7894 4.67029C43.1114 4.6383 44.4251 4.88632 45.6444 5.39806L46.1211 5.61098L46.8425 1.52086L46.7186 1.54946ZM59.9138 1.095H55.9412C54.705 1.095 53.7738 1.43505 53.2335 2.66177L45.5935 19.9693H50.9994L52.0799 17.1313L58.6775 17.1377C58.8332 17.8019 59.3099 19.9693 59.3099 19.9693H64.077L59.9138 1.095ZM26.0932 0.9361H31.2447L28.0222 19.82H22.877L26.0932 0.929744V0.9361ZM13.0156 11.3441L13.5495 13.966L18.5835 1.095H24.0401L15.933 19.9439H10.489L6.03979 3.98383C5.96773 3.72066 5.79849 3.49464 5.56626 3.3514C3.96263 2.52301 2.26348 1.89436 0.506836 1.47954L0.576752 1.08229H8.86823C9.99326 1.12678 10.899 1.47954 11.2009 2.68084L13.0124 11.3537L13.0156 11.3441ZM53.5577 13.27L55.6107 7.98815C55.5853 8.04535 56.0334 6.89808 56.294 6.18938L56.6467 7.81971L57.8385 13.2669H53.5545L53.5577 13.27Z" fill="#9F9F9F"/>
</svg>
