<svg width="189" height="26" viewBox="0 0 189 26" fill="none" xmlns="http://www.w3.org/2000/svg">
    <path d="M53.3112 24.4418C49.7775 23.6361 48.678 18.291 48.532 15.2538C48.5264 15.1374 48.3582 15.109 48.316 15.2177L47.678 16.8607C47.1437 18.2364 46.0743 19.6249 44.6268 19.3081C44.3562 19.2489 44.0827 19.1471 43.8174 18.9888C42.8379 18.4041 42.2441 16.6048 41.9794 15.3646C41.9542 15.2465 41.766 15.2471 41.7455 15.366C41.549 16.5058 41.2338 18.3444 40.979 19.8652C40.8605 20.573 40.6512 21.1668 40.3944 21.6685C39.4179 23.5763 37.1745 24.6173 35.0298 24.4472C33.0209 24.2878 31.0079 23.2511 30.4087 20.2547C29.2002 14.2108 31.2896 7.98552 33.2471 4.77217C35.2045 1.55882 38.3036 1.51802 40.0653 1.6562C40.6811 1.70449 41.348 1.9477 41.9524 2.26442C43.3466 2.99492 44.0863 4.45006 44.6164 5.92663L45.1158 7.3179C45.1618 7.44594 45.3623 7.43312 45.3973 7.30168C45.6263 6.4406 46.1091 5.10548 46.6228 4.14713C47.458 2.58914 48.6133 1.98078 49.2984 1.6562C51.158 0.909662 55.4449 0.935628 57.7155 7.01178C59.9862 13.0879 59.7056 18.8914 59.2815 21.0337C58.9426 22.7456 57.0696 25.2987 53.3112 24.4418Z" fill="#0033D9"/>
    <path d="M118.082 24.401C114.582 23.5958 113.492 18.2559 113.346 15.2179C113.341 15.1012 113.172 15.0729 113.13 15.1819L112.5 16.8202C111.97 18.1959 110.903 19.5915 109.46 19.2637C109.197 19.204 108.931 19.1032 108.674 18.948C107.705 18.3643 107.117 16.57 106.854 15.3299C106.829 15.2117 106.64 15.2124 106.62 15.3315C106.425 16.4717 106.113 18.3064 105.861 19.8244C105.746 20.5199 105.543 21.1054 105.295 21.6015C104.331 23.5272 102.075 24.5894 99.9208 24.4027C97.9449 24.2314 95.9753 23.188 95.386 20.2139C94.1883 14.17 96.2589 7.94475 98.1987 4.7314C100.139 1.51805 103.21 1.47725 104.956 1.61543C105.565 1.6637 106.226 1.90669 106.825 2.22318C108.209 2.9549 108.939 4.4061 109.462 5.87658L109.959 7.27241C110.005 7.40087 110.206 7.38808 110.241 7.25628C110.468 6.39505 110.946 5.06299 111.454 4.10636C112.282 2.54837 113.427 1.94001 114.105 1.61543C115.948 0.868891 120.197 0.894857 122.447 6.97101C124.697 13.0472 124.419 18.8507 123.999 20.9929C123.663 22.7048 121.807 25.2579 118.082 24.401Z" fill="#0033D9"/>
    <path d="M182.74 25.7651C179.206 24.9594 178.106 19.6143 177.961 16.5771C177.955 16.4607 177.787 16.4323 177.745 16.541L177.106 18.1839C176.572 19.5597 175.503 20.9482 174.055 20.6314C173.785 20.5721 173.511 20.4704 173.246 20.3121C172.266 19.7274 171.673 17.9281 171.408 16.6878C171.383 16.5698 171.195 16.5704 171.174 16.6893C170.978 17.8291 170.662 19.6677 170.408 21.1885C170.289 21.8963 170.08 22.4901 169.823 22.9918C168.846 24.8995 166.603 25.9406 164.458 25.7704C162.449 25.6111 160.436 24.5744 159.837 21.578C158.629 15.5341 160.718 9.30879 162.676 6.09544C164.633 2.88209 167.732 2.8413 169.494 2.97947C170.11 3.02777 170.777 3.27097 171.381 3.58769C172.775 4.31819 173.515 5.77333 174.045 7.2499L174.544 8.64118C174.59 8.76921 174.791 8.75639 174.826 8.62495C175.055 7.76387 175.538 6.42875 176.051 5.4704C176.887 3.91241 178.042 3.30405 178.727 2.97947C180.587 2.23294 184.873 2.2589 187.144 8.33506C189.415 14.4112 189.134 20.2147 188.71 22.357C188.371 24.0689 186.498 26.6219 182.74 25.7651Z" fill="#0033D9"/>
    <path fill-rule="evenodd" clip-rule="evenodd" d="M1.2518 18.3774C-1.01533 13.3983 0.307163 7.35601 1.2518 4.95724C4.30769 -1.90702 19.8198 -1.31402 24.5069 4.71297C26.1305 6.29597 27.545 9.49527 28.1217 13.3154C28.9824 19.0171 28.787 23.7727 25.1476 24.3168C23.7727 24.5224 22.4389 24.0323 21.3136 22.2083C18.6172 24.6448 13.7914 24.8366 11.2194 24.6013C8.84154 24.6013 3.51894 23.3565 1.2518 18.3774ZM10.8666 14.8099C10.1736 14.039 9.77214 11.7347 9.77214 10.5632C9.77214 9.8798 10.1145 7.68582 12.1174 7.9273C14.466 8.21046 14.4642 9.47434 14.4627 10.4877L14.4626 10.5632C14.4626 11.5882 14.4626 14.0777 13.8372 14.8099C13.2118 15.542 11.8343 15.8863 10.8666 14.8099Z" fill="#0033D9"/>
    <path fill-rule="evenodd" clip-rule="evenodd" d="M66.1422 18.3774C63.875 13.3983 65.1975 7.35601 66.1422 4.95724C69.198 -1.9069 84.7095 -1.31404 89.397 4.71263C91.0208 6.29552 92.4354 9.495 93.0121 13.3154C93.8729 19.0171 93.6774 23.7727 90.0381 24.3168C88.6631 24.5224 87.3293 24.0323 86.204 22.2082C83.5076 24.6448 78.6818 24.8366 76.1098 24.6013C73.7319 24.6013 68.4093 23.3565 66.1422 18.3774ZM75.7569 14.8098C75.0639 14.0389 74.6625 11.7347 74.6625 10.5632C74.6625 9.87979 75.0048 7.68581 77.0077 7.92729C79.3564 8.21046 79.3545 9.47434 79.353 10.4877L79.353 10.5632C79.353 11.5882 79.353 14.0777 78.7276 14.8098C78.1022 15.542 76.7247 15.8863 75.7569 14.8098Z" fill="#0033D9"/>
    <path fill-rule="evenodd" clip-rule="evenodd" d="M130.767 19.7007C128.499 14.7216 129.822 8.67928 130.767 6.28051C133.823 -0.583908 149.335 0.00928105 154.022 6.03666C155.645 7.6198 157.06 10.8189 157.636 14.6386C158.497 20.3403 158.302 25.096 154.662 25.6401C153.287 25.8457 151.954 25.3556 150.828 23.5316C148.132 25.968 143.306 26.1599 140.734 25.9245C138.356 25.9245 133.034 24.6798 130.767 19.7007ZM140.381 16.1331C139.688 15.3622 139.287 13.0579 139.287 11.8864C139.287 11.2031 139.629 9.00908 141.632 9.25057C143.981 9.53373 143.979 10.7976 143.977 11.811L143.977 11.8864C143.977 12.9115 143.977 15.4009 143.352 16.1331C142.727 16.8653 141.349 17.2096 140.381 16.1331Z" fill="#0033D9"/>
</svg>

