<svg width="209" height="71" viewBox="0 0 209 71" fill="none" xmlns="http://www.w3.org/2000/svg">
<g clip-path="url(#clip0_160_2260)">
<path d="M104.84 36.747L101.152 44.3293L99.5698 35.3782H97.7195C97.2832 35.3795 96.8567 35.5039 96.4868 35.7373C96.1178 35.9707 95.8205 36.3037 95.6285 36.6987L91.9412 44.3255L91.0979 39.423C90.9076 38.3062 90.3316 37.2931 89.4723 36.5624C88.6131 35.8317 87.5252 35.4304 86.4007 35.4292H79.1367C79.1367 35.4292 86.7743 37.4124 87.4125 41.0506L89.0511 50.3743H92.5907L97.0151 41.4022L98.7238 50.3965H102.292L109.668 35.4475H106.924C106.492 35.4468 106.067 35.567 105.699 35.7948C105.331 36.0226 105.032 36.3491 104.837 36.7378L104.84 36.747Z" fill="#9F9F9F"/>
<path d="M118.009 35.0592C116.909 35.0323 115.815 35.2379 114.799 35.6627C113.782 36.0876 112.866 36.7223 112.108 37.5259C111.341 38.3185 110.739 39.2579 110.338 40.2886C109.938 41.3195 109.745 42.4207 109.773 43.5275C109.734 44.4958 109.907 45.4609 110.279 46.3544C110.652 47.2478 111.214 48.0478 111.928 48.6976C113.428 50.0293 115.378 50.731 117.375 50.6585C119.21 50.7608 121.031 50.2951 122.596 49.3238L123.098 45.874C121.659 46.6657 120.047 47.0847 118.408 47.0936C115.814 47.0936 113.897 46.0231 113.782 44.0021H124.399C124.567 43.1514 124.654 42.2863 124.658 41.419C124.679 40.5752 124.527 39.7363 124.213 38.9538C123.898 38.1714 123.428 37.4622 122.832 36.8698C122.194 36.2516 121.437 35.7719 120.607 35.4605C119.777 35.1491 118.893 35.0125 118.009 35.0592ZM120.662 41.334H114.091C114.272 40.4756 114.745 39.708 115.428 39.1647C116.112 38.6214 116.963 38.3367 117.833 38.36C118.517 38.2948 119.2 38.506 119.73 38.9472C120.26 39.3884 120.594 40.0235 120.66 40.713C120.673 40.8512 120.676 40.9902 120.668 41.1288L120.662 41.334Z" fill="#9F9F9F"/>
<path d="M137.554 35.0591C136.637 35.0437 135.727 35.2238 134.883 35.5876C134.04 35.9515 133.283 36.4908 132.661 37.1702L133.9 29.4731H131.723C131.171 29.4765 130.639 29.6779 130.22 30.0413C129.801 30.4046 129.525 30.9063 129.44 31.4562L126.49 50.2806H130.64L130.935 48.3197C131.531 49.0703 132.292 49.6723 133.156 50.079C134.021 50.4857 134.967 50.6862 135.921 50.6649C136.996 50.7016 138.066 50.4843 139.044 50.0303C140.022 49.5764 140.88 48.8984 141.552 48.0504C142.971 46.3559 143.736 44.2021 143.707 41.9847C143.759 40.1889 143.16 38.4355 142.02 37.0539C141.477 36.3989 140.792 35.8784 140.017 35.5325C139.243 35.1866 138.4 35.0247 137.554 35.0591ZM138.203 45.7C137.819 46.1162 137.354 46.4474 136.836 46.6725C136.319 46.8976 135.761 47.0115 135.198 47.0072C134.447 46.9991 133.712 46.795 133.062 46.4146C132.414 46.0342 131.875 45.4907 131.497 44.8372L132.116 40.8853C132.53 40.24 133.091 39.7053 133.754 39.3273C134.417 38.9493 135.161 38.7392 135.922 38.7154C136.369 38.6972 136.816 38.7679 137.235 38.9235C137.656 39.0791 138.042 39.3167 138.37 39.6224C138.699 39.9282 138.965 40.2962 139.153 40.7057C139.341 41.115 139.447 41.5577 139.464 42.0083C139.471 42.1389 139.471 42.2699 139.464 42.4005C139.495 43.6207 139.05 44.8046 138.225 45.6974L138.203 45.7Z" fill="#9F9F9F"/>
<path d="M156.645 35.0593C155.728 35.0439 154.817 35.2241 153.974 35.5879C153.13 35.9517 152.373 36.4911 151.751 37.1704L152.046 35.4461H147.88L144.605 56.2222H146.788C147.342 56.2214 147.876 56.022 148.296 55.6597C148.718 55.2976 148.996 54.7962 149.083 54.2457L150.008 48.3187C150.604 49.0691 151.364 49.671 152.229 50.0776C153.094 50.4844 154.04 50.6849 154.994 50.6638C156.069 50.7005 157.139 50.4832 158.117 50.0293C159.095 49.5754 159.953 48.8973 160.625 48.0493C162.044 46.3548 162.808 44.2011 162.778 41.9837C162.831 40.1875 162.232 38.4336 161.093 37.0516C160.551 36.3997 159.869 35.8813 159.098 35.536C158.326 35.1906 157.488 35.0276 156.645 35.0593ZM157.294 45.7002C156.912 46.118 156.446 46.4503 155.928 46.6754C155.411 46.9006 154.852 47.0137 154.288 47.0075C153.535 47.0019 152.796 46.799 152.145 46.4185C151.493 46.0381 150.95 45.4932 150.57 44.8375L151.199 40.8856C151.611 40.2402 152.173 39.7054 152.836 39.3274C153.499 38.9494 154.243 38.7395 155.004 38.7156C155.451 38.6975 155.897 38.7681 156.318 38.9237C156.737 39.0793 157.123 39.3169 157.452 39.6227C157.781 39.9285 158.047 40.2965 158.234 40.7059C158.422 41.1153 158.528 41.558 158.547 42.0086C158.554 42.1392 158.554 42.2702 158.547 42.4007C158.575 43.6218 158.128 44.8057 157.3 45.6976L157.294 45.7002Z" fill="#9F9F9F"/>
<path d="M179.413 47.1277C178.734 47.1277 178.375 46.8023 178.375 46.146C178.375 45.9605 178.435 45.5865 178.522 44.9865L178.995 42.1014C179.121 41.516 179.19 40.9198 179.202 40.3209C179.259 39.5485 179.115 38.7745 178.783 38.0756C178.452 37.3767 177.945 36.7772 177.314 36.3365C175.897 35.4346 174.242 34.9886 172.568 35.0579C170.801 35.0208 169.045 35.3445 167.406 36.0096L166.882 39.4922C168.26 38.8208 169.773 38.4753 171.305 38.4816C173.813 38.4816 175.053 39.2856 175.053 40.8909C175.036 41.2499 174.996 41.6074 174.935 41.9615C173.487 41.2025 171.876 40.818 170.244 40.8425C168.687 40.8082 167.161 41.2986 165.911 42.236C165.331 42.6844 164.868 43.2671 164.56 43.9346C164.252 44.6021 164.108 45.3347 164.14 46.0701C164.14 48.7761 166.206 50.6755 169.417 50.6755C170.322 50.6957 171.221 50.5326 172.063 50.1958C172.903 49.8589 173.669 49.3552 174.314 48.7148C174.638 49.9305 175.699 50.5553 177.495 50.5553C178.258 50.5873 179.014 50.4035 179.678 50.0246L180.151 46.9931C179.913 47.0778 179.664 47.1233 179.413 47.1277ZM174.248 45.9682C173.817 46.4434 173.294 46.8234 172.71 47.0844C172.125 47.3454 171.495 47.4817 170.856 47.4846C169.292 47.4846 168.261 46.8899 168.261 45.7002C168.261 44.2741 169.531 43.5302 171.299 43.5302C172.445 43.4864 173.577 43.7976 174.542 44.4217L174.248 45.9682Z" fill="#9F9F9F"/>
<path d="M193.475 36.7117L189.111 45.2088L186.459 35.4319H182.123L186.519 49.7593C185.369 51.7463 184.072 52.7581 182.596 52.7581C181.845 52.7548 181.11 52.5386 180.475 52.1345L179.92 55.7609C180.8 56.1962 181.772 56.4105 182.752 56.3857C184.165 56.3578 185.54 55.9267 186.718 55.1426C187.897 54.3583 188.832 53.2532 189.412 51.9555L198.552 35.4319H195.544C195.116 35.4322 194.696 35.5519 194.331 35.7778C193.966 36.0036 193.67 36.3269 193.475 36.7117Z" fill="#9F9F9F"/>
<path d="M206.171 37.7575C206.171 37.011 205.616 36.5339 204.765 36.5339H202.879V40.623H203.778V39.0072H204.42L205.588 40.623H206.59L205.348 38.8987C205.594 38.8329 205.811 38.6835 205.96 38.4756C206.111 38.2678 206.185 38.0141 206.171 37.7575ZM204.726 38.2438H203.779V37.3H204.726C204.795 37.2906 204.864 37.2964 204.929 37.3168C204.996 37.3373 205.056 37.3719 205.107 37.4182C205.158 37.4646 205.199 37.5217 205.227 37.5855C205.253 37.6492 205.266 37.7181 205.265 37.7875C205.265 38.0869 205.083 38.2373 204.726 38.2373V38.2438Z" fill="#9F9F9F"/>
<path d="M204.521 34.6475C203.738 34.6475 202.974 34.8814 202.322 35.3197C201.672 35.7579 201.164 36.3808 200.865 37.1096C200.565 37.8384 200.487 38.6403 200.639 39.414C200.792 40.1876 201.169 40.8983 201.722 41.4561C202.276 42.0139 202.982 42.3938 203.749 42.5476C204.517 42.7015 205.312 42.6226 206.035 42.3207C206.758 42.0189 207.377 41.5077 207.811 40.8518C208.247 40.1958 208.478 39.4247 208.478 38.6359C208.478 38.1121 208.376 37.5935 208.178 37.1096C207.979 36.6257 207.687 36.186 207.319 35.8156C206.952 35.4453 206.516 35.1516 206.035 34.9511C205.556 34.7507 205.041 34.6475 204.521 34.6475ZM204.521 42.0033C203.86 42.0031 203.214 41.8054 202.665 41.4352C202.116 41.065 201.688 40.539 201.435 39.9237C201.183 39.3083 201.116 38.6313 201.245 37.9781C201.375 37.325 201.693 36.7251 202.16 36.2543C202.628 35.7835 203.223 35.4629 203.871 35.3331C204.519 35.2032 205.191 35.2699 205.802 35.5249C206.411 35.7798 206.933 36.2114 207.301 36.7652C207.668 37.3189 207.863 37.9699 207.863 38.6359C207.863 39.0783 207.777 39.5162 207.61 39.9248C207.441 40.3335 207.195 40.7048 206.885 41.0175C206.574 41.3302 206.205 41.5782 205.8 41.7474C205.395 41.9165 204.96 42.0035 204.521 42.0033Z" fill="#9F9F9F"/>
<path d="M29.7422 18.8526L34.6131 0.54248L39.4774 18.8526H29.7422ZM46.2004 30.7138L55.6047 14.3045L39.3243 23.7628L46.2004 30.7138ZM51.0829 40.3761L74.1967 35.475L51.088 30.5647L51.0829 40.3761ZM39.319 47.1479L55.6008 56.6259L46.2004 40.2166L39.319 47.1479ZM29.7305 52.0687L34.5975 70.3709L39.4643 52.0687H29.7305ZM23.0113 40.2219L13.607 56.6312L29.8888 47.1571L23.0113 40.2219ZM18.1302 30.5478L0 35.445L18.16 40.3552L18.1302 30.5478ZM29.9056 23.7668L13.6201 14.2927L23.0178 30.7125L29.9056 23.7668Z" fill="#9F9F9F"/>
</g>
<defs>
<clipPath id="clip0_160_2260">
<rect width="208.479" height="69.9167" fill="white" transform="translate(0 0.54248)"/>
</clipPath>
</defs>
</svg>
