<svg width="20" height="20" viewBox="0 0 20 20" fill="none" xmlns="http://www.w3.org/2000/svg">
<path d="M14.2506 15.6792V18.2417H5.50061V15.6792H5.56314C4.23875 14.9296 3.13988 13.8382 2.3813 12.5189C1.62272 11.1996 1.23223 9.7009 1.25062 8.1792H18.5631C18.5685 9.69838 18.1725 11.192 17.4152 12.509C16.658 13.826 15.5663 14.9196 14.2506 15.6792Z" stroke="#091230" stroke-width="1.5" stroke-linecap="round" stroke-linejoin="round"/>
<path d="M13.688 8.24148H9.31299L13.563 2.05398C13.8414 1.65396 14.2646 1.37805 14.7429 1.28471C15.2212 1.19138 15.7171 1.28796 16.1255 1.55399C16.5255 1.83238 16.8014 2.25558 16.8947 2.73392C16.9881 3.21226 16.8915 3.70813 16.6255 4.11648L13.688 8.24148Z" stroke="#091230" stroke-width="1.5" stroke-linecap="round" stroke-linejoin="round"/>
</svg>
