<svg width="83" height="83" viewBox="0 0 83 83" fill="none" xmlns="http://www.w3.org/2000/svg">
<path d="M34.2357 42.4092L30.4761 52.5622L30.0733 50.4965C29.1334 47.966 27.0986 45.3115 24.7334 44.227L28.1831 57.2721H32.2629L38.3258 42.3885H34.2357V42.4092Z" fill="#9F9F9F"/>
<path d="M37.4688 57.303L39.8753 42.3885H43.7279L41.3213 57.303H37.4688Z" fill="#9F9F9F"/>
<path d="M55.2857 42.7604C54.5213 42.4609 53.3232 42.1304 51.8359 42.1304C48.0246 42.1304 45.3495 44.1548 45.3289 47.0468C45.3082 49.1951 47.2397 50.3829 48.696 51.0956C50.204 51.8289 50.6998 52.2937 50.6998 52.9444C50.6894 53.9463 49.5016 54.4007 48.3965 54.4007C46.8575 54.4007 46.0416 54.1735 44.7711 53.6261L44.2754 53.3885L43.7383 56.7247C44.6369 57.1378 46.2998 57.4993 48.035 57.52C52.0735 57.52 54.7073 55.5162 54.7382 52.428C54.7589 50.7238 53.726 49.443 51.5054 48.3792C50.1627 47.6872 49.3364 47.2327 49.3467 46.5304C49.3467 45.9106 50.0387 45.2496 51.557 45.2496C52.8171 45.229 53.726 45.5182 54.4387 45.828L54.7796 46.0036L55.2857 42.7604Z" fill="#9F9F9F"/>
<path d="M65.159 42.4092H62.1844C61.2651 42.4092 60.5731 42.6674 60.16 43.6486L54.4482 57.3133H58.4867C58.4867 57.3133 59.1478 55.4749 59.3027 55.072C59.7468 55.072 63.6717 55.0824 64.2294 55.0824C64.3534 55.5988 64.6942 57.3133 64.6942 57.3133H68.2782L65.159 42.4092ZM60.4078 52.0148C60.728 51.1575 61.9365 47.842 61.9365 47.842C61.9158 47.8833 62.2567 46.9847 62.4529 46.4167L62.7111 47.6974C62.7111 47.6974 63.4548 51.2608 63.6097 52.0044C63.0107 52.0148 61.1618 52.0148 60.4078 52.0148Z" fill="#9F9F9F"/>
<path d="M26.9744 42.3989H20.7669L20.7256 42.6571C25.549 43.8966 28.7406 46.9229 30.0626 50.5069L28.7199 43.6487C28.4927 42.7088 27.811 42.4299 26.9744 42.3989Z" fill="#9F9F9F"/>
<path d="M9.11637 38.7942H6.66849L3.82812 26.0281L6.54455 25.5736L8.48632 35.5614L13.4234 25.7079H16.0262L9.11637 38.7942Z" fill="#9F9F9F"/>
<path d="M21.8927 34.6214H16.0364C15.8711 36.398 16.6974 37.1726 18.1021 37.1726C19.2692 37.1726 20.3021 36.7388 21.4073 36.0365L21.3969 37.813C20.3124 38.4947 19.0523 38.9285 17.5753 38.9285C15.0242 38.9285 13.3406 37.4721 13.8467 34.1876C14.3012 31.2233 16.3566 29.4261 18.7322 29.4261C21.4692 29.4261 22.3781 31.4815 21.9857 34.074C21.965 34.2599 21.903 34.4872 21.8927 34.6214ZM18.4429 30.9961C17.534 30.9961 16.6871 31.7088 16.2946 33.2064H19.9199C19.9819 31.7914 19.5378 30.9961 18.4429 30.9961Z" fill="#9F9F9F"/>
<path d="M25.7043 33.506L24.8987 38.7323H22.6367L24.0414 29.6121H25.9729V31.4403C26.7372 30.3868 27.7804 29.4985 29.216 29.4159L29.2264 31.6675C27.7804 31.7708 26.4996 32.5248 25.7043 33.506Z" fill="#9F9F9F"/>
<path d="M29.1846 38.7323L30.5893 29.6122H32.8512L31.4569 38.7323H29.1846ZM31.9733 28.0835C31.2193 28.0835 30.6925 27.5568 30.8165 26.8028C30.9404 26.0281 31.6221 25.4807 32.3761 25.4807C33.1094 25.4807 33.6362 26.0281 33.5123 26.8028C33.3986 27.5568 32.717 28.0835 31.9733 28.0835Z" fill="#9F9F9F"/>
<path d="M39.1311 27.1229C38.3564 27.1229 37.8917 27.4638 37.7677 28.2797L37.5611 29.6225H39.2963V31.4713H37.2719L36.1564 38.7323H33.9048L35.0203 31.461H33.6982L33.9874 29.6121H35.3095L35.5471 28.0422C35.8569 26.0178 37.2616 25.2638 39.1311 25.2638C39.5236 25.2638 39.8231 25.3051 40.0503 25.3361L40.071 27.1849C39.8438 27.1643 39.5132 27.1229 39.1311 27.1229Z" fill="#9F9F9F"/>
<path d="M39.1523 38.7323L40.557 29.6122H42.819L41.4246 38.7323H39.1523ZM41.9514 28.0835C41.1974 28.0835 40.6706 27.5568 40.7843 26.8028C40.9082 26.0281 41.5899 25.4807 42.3439 25.4807C43.0772 25.4807 43.604 26.0281 43.48 26.8028C43.3664 27.5568 42.6847 28.0835 41.9514 28.0835Z" fill="#9F9F9F"/>
<path d="M51.6183 34.6214H45.762C45.607 36.398 46.423 37.1726 47.8277 37.1726C48.9948 37.1726 50.0277 36.7388 51.1328 36.0365L51.1225 37.813C50.038 38.4947 48.7779 38.9285 47.3009 38.9285C44.7498 38.9285 43.0662 37.4721 43.5723 34.1876C44.0268 31.2233 46.0822 29.4261 48.4577 29.4261C51.1948 29.4261 52.1037 31.4815 51.7112 34.074C51.6906 34.2599 51.6286 34.4872 51.6183 34.6214ZM48.1685 30.9961C47.2596 30.9961 46.4127 31.7088 46.0202 33.2064H49.6455C49.7075 31.7914 49.2634 30.9961 48.1685 30.9961Z" fill="#9F9F9F"/>
<path d="M58.3215 38.7323L58.3318 37.4618C57.5675 38.2365 56.5759 38.9182 55.3159 38.9182C53.4051 38.9182 52.0933 37.5032 52.5684 34.4252C53.0952 31.0271 55.1919 29.5191 57.3093 29.5191C58.1769 29.5191 58.8586 29.6741 59.375 29.86L60.0567 25.46L62.3806 25.0985L60.2839 38.7323H58.3215ZM59.0858 31.7295C58.559 31.4609 58.1459 31.337 57.3712 31.337C56.1835 31.337 55.1609 32.2975 54.8614 34.3013C54.5928 36.0778 55.2126 36.9041 56.2144 36.9041C57.0407 36.9041 57.7637 36.4083 58.4867 35.6543L59.0858 31.7295Z" fill="#9F9F9F"/>
<path d="M67.2148 38.8252C66.1406 38.8252 65.2627 38.6496 64.457 38.3707L65.9444 28.6825L67.7002 28.4139L67.0598 32.6074C67.5763 32.1529 68.2889 31.6881 69.1565 31.6881C70.6129 31.6881 71.5941 32.7726 71.2326 35.0965C70.8401 37.6374 69.2702 38.8252 67.2148 38.8252ZM68.4852 33.1961C67.9171 33.1961 67.3387 33.5782 66.8326 34.0947L66.3472 37.2242C66.688 37.3482 66.9152 37.4101 67.4007 37.4101C68.4852 37.4101 69.2495 36.7491 69.4871 35.1792C69.6936 33.8571 69.2495 33.1961 68.4852 33.1961Z" fill="#9F9F9F"/>
<path d="M75.2812 39.1144C74.4033 40.8186 73.5357 41.3453 72.2033 41.3453C71.9038 41.3453 71.7385 41.3144 71.5836 41.273L71.5732 39.858C71.7901 39.92 72.0277 39.9613 72.3582 39.9613C72.854 39.9613 73.2981 39.7341 73.5873 39.228L73.8145 38.7735L72.3582 31.967L74.1864 31.7397L75.0333 36.6562L77.3159 31.8327H79.0202L75.2812 39.1144Z" fill="#9F9F9F"/>
</svg>
