<svg width="120" height="50" viewBox="0 0 120 50" fill="none" xmlns="http://www.w3.org/2000/svg">
    <path d="M27.4362 37.8913C26.0089 36.4167 23.6633 36.3943 22.2028 37.8355L14.9336 45.03C14.4468 45.5104 14.4578 46.136 14.6238 46.5493C14.7898 46.9627 15.2102 47.4095 15.8962 47.4207L28.6754 47.4654C29.6601 47.4654 30.4789 46.661 30.4899 45.6668C30.4899 45.6109 30.4899 45.5551 30.4899 45.5104C30.5121 42.6728 29.3946 39.9134 27.4362 37.8913Z" fill="#9F9F9F"/>
    <path d="M17.522 36.1374C17.5442 34.0818 15.8956 32.3837 13.8598 32.3614L3.69172 32.2608C3.00573 32.2497 2.58529 32.6965 2.40826 33.1099C2.23123 33.5232 2.22017 34.1488 2.69593 34.6292L11.7022 43.7788C12.3993 44.4826 13.5389 44.4937 14.247 43.8011C14.2802 43.7676 14.3245 43.7229 14.3577 43.6894C16.3492 41.7232 17.4999 38.9638 17.522 36.1374Z" fill="#9F9F9F"/>
    <path d="M11.7467 27.8257C13.2072 26.3845 13.2293 24.0162 11.802 22.5415L4.67666 15.2018C4.20089 14.7102 3.58129 14.7214 3.17192 14.889C2.76254 15.0565 2.31997 15.481 2.30891 16.1737L2.26465 29.0881C2.26465 30.0823 3.06127 30.909 4.04599 30.9202C4.10131 30.9202 4.15664 30.9202 4.20089 30.9202C7.00015 30.9314 9.74408 29.8031 11.7467 27.8257Z" fill="#9F9F9F"/>
    <path d="M21.7042 11.9844C23.1315 13.459 25.4771 13.4813 26.9376 12.0402L34.2068 4.84569C34.6936 4.36531 34.6826 3.7397 34.5166 3.32635C34.3506 2.913 33.9302 2.46614 33.2442 2.45496L20.465 2.41028C19.4803 2.41028 18.6615 3.21463 18.6505 4.20891C18.6505 4.26477 18.6505 4.32062 18.6505 4.36531C18.6394 7.2029 19.7458 9.96229 21.7042 11.9844Z" fill="#9F9F9F"/>
    <path d="M31.6184 13.7383C31.5963 15.7939 33.2448 17.492 35.2806 17.5143L45.4487 17.6149C46.1347 17.626 46.5551 17.1792 46.7322 16.7658C46.9092 16.3525 46.9202 15.7269 46.4445 15.2465L37.4382 6.07459C36.7411 5.37078 35.6015 5.35961 34.8934 6.05225C34.8602 6.08576 34.816 6.13045 34.7828 6.16396C32.8023 8.15251 31.6516 10.9007 31.6184 13.7383Z" fill="#9F9F9F"/>
    <path d="M37.4047 22.05C35.9442 23.4911 35.9221 25.8595 37.3494 27.3342L44.4748 34.6739C44.9505 35.1655 45.5701 35.1543 45.9795 34.9867C46.3889 34.8192 46.8315 34.3946 46.8425 33.702L46.8868 20.7988C46.8868 19.8045 46.0902 18.9778 45.1054 18.9666C45.0501 18.9666 44.9948 18.9666 44.9505 18.9666C42.1402 18.9443 39.3963 20.0615 37.4047 22.05Z" fill="#9F9F9F"/>
    <path d="M35.6676 32.0486C33.6318 32.0262 31.95 33.6908 31.9279 35.7464L31.8283 46.0131C31.8173 46.7057 32.2598 47.1302 32.6692 47.309C33.0786 47.4877 33.6982 47.4989 34.1739 47.0185L43.2356 37.9248C43.9326 37.221 43.9437 36.0703 43.2577 35.3554C43.2245 35.3218 43.1803 35.2772 43.1471 35.2436C41.1887 33.2439 38.4669 32.0821 35.6676 32.0486Z" fill="#9F9F9F"/>
    <path d="M16.0282 8.87862V8.10778C16.0282 6.23094 14.5567 4.66692 12.6979 4.64458C10.8059 4.61106 9.2569 6.16392 9.2569 8.06309V8.88979C8.16154 9.31431 7.37598 10.3868 7.37598 11.6492V13.5819C7.37598 15.2129 8.68156 16.5312 10.2969 16.5312H11.2817C11.4587 16.5312 11.6136 16.3971 11.6578 16.2184L12.0893 13.2579C12.1004 13.1797 12.0672 13.1015 12.0008 13.0568C11.5915 12.811 11.337 12.353 11.3923 11.8279C11.4587 11.247 11.9123 10.789 12.4877 10.7219C13.24 10.6326 13.8928 11.2358 13.8928 11.9732C13.8928 12.4312 13.6494 12.8334 13.2843 13.0568C13.2179 13.1015 13.1847 13.1797 13.1958 13.2579L13.6273 16.2184C13.6605 16.3971 13.8154 16.5312 14.0035 16.5312H14.9882C16.6036 16.5312 17.9091 15.2129 17.9091 13.5819V11.638C17.8981 10.3756 17.1236 9.30314 16.0282 8.87862ZM15.2759 8.69987C15.1763 8.6887 15.0767 8.6887 14.9882 8.6887H10.308C10.2084 8.6887 10.1088 8.6887 10.0203 8.69987V8.05192C10.0203 6.56609 11.2263 5.37073 12.6979 5.39307C14.1362 5.41542 15.2759 6.64429 15.2759 8.0966V8.69987Z" fill="#9F9F9F"/>
    <path d="M66.792 13.6153C66.792 15.6709 65.2873 17.112 63.1961 17.112C61.2156 17.112 59.5781 15.8161 59.5781 13.2467V11.9954C59.5781 9.52651 60.762 7.73905 62.9527 7.31453L66.1945 6.91235V8.2306L63.2625 8.5881C61.9348 8.85621 61.1271 9.71643 61.0497 11.4927C61.5586 10.4761 62.5323 10.208 63.4395 10.208C65.3758 10.1968 66.792 11.5821 66.792 13.6153ZM65.3094 13.6042C65.3094 12.3753 64.4353 11.4815 63.2072 11.4815C61.968 11.4815 61.0939 12.3641 61.0939 13.6042C61.0939 14.8665 61.968 15.7379 63.2072 15.7379C64.4243 15.7379 65.3094 14.8665 65.3094 13.6042Z" fill="#9F9F9F"/>
    <path d="M74.6921 14.0175C74.6921 13.7941 74.6921 13.593 74.6811 13.3807C74.5151 11.1241 73.0989 9.88403 71.1737 9.88403C69.1268 9.88403 67.6553 11.4481 67.6553 13.5148C67.6553 15.6821 69.1932 17.1232 71.2843 17.1232C72.8333 17.1232 74.0615 16.2072 74.4819 15.0341H73.0104C72.6674 15.4922 72.1031 15.8497 71.2954 15.8497C70.1558 15.8497 69.2707 15.1012 69.1821 14.0175H74.6921ZM69.1821 12.8557C69.2596 11.8614 70.0894 11.1353 71.1737 11.1353C72.3023 11.1353 73.0878 11.8726 73.1321 12.8557H69.1821Z" fill="#9F9F9F"/>
    <path d="M75.2008 15.6709C75.7319 15.6486 76.2851 15.3469 76.2851 14.2409V10.0404H81.6956V17.0003H80.1908V11.4145H77.7567V14.2744C77.7567 16.2071 76.6281 17.0785 75.1787 17.045L75.2008 15.6709Z" fill="#9F9F9F"/>
    <path d="M85.8113 13.2802L89.1084 10.0404H87.3603L85.5347 11.8279L84.5057 12.8333V10.0404H84.4836H83.0895H83.001V17.0003H83.0895H84.4836H84.5057V13.727L85.5236 14.8777L87.3714 17.0003H89.1195L85.8113 13.2802Z" fill="#9F9F9F"/>
    <path d="M95.1166 10.0292L94.9285 11.0682C94.3421 10.342 93.3241 9.89514 92.4058 9.89514C92.3947 9.89514 92.3837 9.89514 92.3726 9.89514C92.3616 9.89514 92.3394 9.89514 92.3284 9.89514C91.3326 9.89514 90.5249 10.2638 89.9385 10.8559C89.9053 10.8894 89.8832 10.9118 89.85 10.9453C89.8389 10.9676 89.8168 10.9788 89.8057 11.0011C89.2525 11.6379 88.9316 12.5093 88.9316 13.5036V13.5147V13.5259C88.9316 14.5202 89.2414 15.3916 89.8057 16.0284C89.8168 16.0507 89.8389 16.0619 89.85 16.0842C89.8721 16.1177 89.9053 16.1401 89.9385 16.1736C90.5138 16.7769 91.3326 17.1343 92.3284 17.1343C92.3394 17.1343 92.3616 17.1343 92.3726 17.1343C92.3837 17.1343 92.3947 17.1343 92.4058 17.1343C93.3241 17.1343 94.3421 16.6987 94.9285 15.9613V17.0003H96.4553V16.9891V10.0404V10.0292H95.1166ZM92.7156 15.7379C91.41 15.7379 90.4806 14.8107 90.4806 13.5147C90.4806 12.2188 91.41 11.2916 92.7156 11.2916C93.9991 11.2916 94.9174 12.2524 94.9174 13.5147C94.9174 14.7771 93.9991 15.7379 92.7156 15.7379Z" fill="#9F9F9F"/>
    <path d="M97.7607 10.0292V10.0404V20.1172V20.1283H99.2876V15.9613C99.874 16.6875 100.892 17.1343 101.81 17.1343C101.821 17.1343 101.832 17.1343 101.843 17.1343C101.855 17.1343 101.877 17.1343 101.888 17.1343C102.883 17.1343 103.691 16.7657 104.278 16.1736C104.311 16.1401 104.333 16.1177 104.366 16.0842C104.377 16.0619 104.399 16.0507 104.41 16.0284C104.964 15.3916 105.284 14.5202 105.284 13.5259V13.5147V13.5036C105.284 12.5093 104.975 11.6379 104.41 11.0011C104.399 10.9788 104.377 10.9676 104.366 10.9453C104.344 10.9118 104.311 10.8894 104.278 10.8559C103.702 10.2526 102.883 9.89514 101.888 9.89514C101.877 9.89514 101.855 9.89514 101.843 9.89514C101.832 9.89514 101.821 9.89514 101.81 9.89514C100.892 9.89514 99.874 10.3308 99.2876 11.0682L99.0995 10.0292H97.7607ZM99.2987 13.5147C99.2987 12.2524 100.217 11.2916 101.5 11.2916C102.806 11.2916 103.735 12.2188 103.735 13.5147C103.735 14.8107 102.806 15.7379 101.5 15.7379C100.217 15.7379 99.2987 14.7771 99.2987 13.5147Z" fill="#9F9F9F"/>
    <path d="M116.647 12.6545V17.0003H115.131V13.0455C115.131 11.7831 114.49 11.2246 113.638 11.2246C112.764 11.2246 112.1 11.8167 112.1 13.0455V17.0003H110.584V13.0455C110.584 11.7831 109.931 11.2246 109.112 11.2246C108.216 11.2246 107.552 11.8167 107.552 13.0455V17.0003H106.025V10.0404H107.364L107.541 11.0458C107.94 10.3308 108.603 9.89514 109.621 9.89514C110.551 9.89514 111.314 10.2861 111.723 11.0458C112.177 10.3308 112.929 9.89514 114.047 9.89514C115.596 9.89514 116.647 10.9453 116.647 12.6545Z" fill="#9F9F9F"/>
    <path d="M64.8008 22.2845H66.0179V29.1104H64.6791V24.5859L61.0058 29.1104H59.7666V22.2845H61.1054V26.8873L64.8008 22.2845Z" fill="#9F9F9F"/>
    <path d="M72.048 22.2845H73.3868V29.1104H72.048V26.6526H68.6513V29.1104H67.3125V22.2845H68.6513V25.2227H72.048V22.2845Z" fill="#9F9F9F"/>
    <path d="M113.96 29.0992V23.4799H111.791V22.2733H117.578V23.4799H115.431V29.0992H113.96Z" fill="#9F9F9F"/>
    <path d="M87.3937 26.1946C87.3937 25.9823 87.3937 25.7701 87.3826 25.5801C87.2167 23.3682 85.8336 22.1616 83.9527 22.1616C81.9501 22.1616 80.5117 23.6921 80.5117 25.7142C80.5117 27.8368 82.0165 29.2444 84.0633 29.2444C85.5792 29.2444 86.7741 28.3507 87.1945 27.2H85.7562C85.4243 27.6581 84.86 27.9932 84.0744 27.9932C82.9569 27.9932 82.0939 27.2559 82.0054 26.1946H87.3937ZM82.0054 25.0551C82.0828 24.0831 82.9016 23.3793 83.9638 23.3793C85.0702 23.3793 85.8447 24.1055 85.8779 25.0551H82.0054Z" fill="#9F9F9F"/>
    <path d="M111.36 26.1946C111.36 25.9823 111.36 25.7701 111.348 25.5801C111.182 23.3682 109.799 22.1616 107.919 22.1616C105.916 22.1616 104.478 23.6921 104.478 25.7142C104.478 27.8368 105.982 29.2444 108.029 29.2444C109.545 29.2444 110.74 28.3507 111.16 27.2H109.722C109.39 27.6581 108.826 27.9932 108.04 27.9932C106.923 27.9932 106.06 27.2559 105.971 26.1946H111.36ZM105.96 25.0551C106.038 24.0831 106.856 23.3793 107.919 23.3793C109.025 23.3793 109.799 24.1055 109.833 25.0551H105.96Z" fill="#9F9F9F"/>
    <path d="M101.999 22.2845H103.338V29.1104H101.999V26.6526H98.6024V29.1104H97.2637V22.2845H98.6024V25.2227H101.999V22.2845Z" fill="#9F9F9F"/>
    <path d="M76.5514 29.0992V23.4799H74.3828V22.2733H80.1694V23.4799H78.0229V29.0992H76.5514Z" fill="#9F9F9F"/>
    <path d="M88.6777 22.2063V22.2175V32.1044V32.1155H90.1714V28.0267C90.7467 28.7417 91.7536 29.1774 92.6498 29.1774C92.6609 29.1774 92.6719 29.1774 92.683 29.1774C92.6941 29.1774 92.7162 29.1774 92.7272 29.1774C93.7009 29.1774 94.4975 28.8199 95.0729 28.2278C95.095 28.2055 95.1282 28.172 95.1503 28.1496C95.1614 28.1273 95.1835 28.1161 95.1946 28.0938C95.7478 27.4682 96.0465 26.6191 96.0465 25.636V25.6248V25.6137C96.0465 24.6417 95.7367 23.7815 95.1946 23.1559C95.1835 23.1336 95.1614 23.1224 95.1503 23.1001C95.1282 23.0665 95.095 23.0442 95.0729 23.0219C94.5086 22.4298 93.712 22.0723 92.7272 22.0723C92.7162 22.0723 92.6941 22.0723 92.683 22.0723C92.6719 22.0723 92.6609 22.0723 92.6498 22.0723C91.7536 22.0723 90.7578 22.4968 90.1714 23.2229L89.9944 22.2063H88.6777ZM90.1935 25.6248C90.1935 24.3848 91.0897 23.4464 92.3621 23.4464C93.6345 23.4464 94.5529 24.3513 94.5529 25.6248C94.5529 26.8984 93.6456 27.8033 92.3621 27.8033C91.0897 27.8145 90.1935 26.8649 90.1935 25.6248Z" fill="#9F9F9F"/>
    <path d="M65.9844 34.5062V41.3321H64.4686V35.7128H61.2931V41.3321H59.7773V34.5062H65.9844Z" fill="#9F9F9F"/>
    <path d="M102.828 36.6289C104.421 36.6289 105.494 37.5226 105.494 38.9861C105.494 40.4608 104.41 41.3433 102.828 41.3433H100.051V34.5175H101.39V36.6289H102.828ZM102.651 40.0586C103.47 40.0586 104.156 39.6899 104.156 38.9861C104.156 38.2711 103.481 37.8913 102.651 37.8913H101.378V40.0586H102.651Z" fill="#9F9F9F"/>
    <path d="M73.154 34.5398L72.977 35.5453C72.4017 34.8303 71.4059 34.4058 70.5097 34.4058C70.4986 34.4058 70.4876 34.4058 70.4765 34.4058C70.4654 34.4058 70.4433 34.4058 70.4322 34.4058C69.4586 34.4058 68.673 34.7633 68.0977 35.3442C68.0756 35.3665 68.0424 35.4 68.0202 35.4224C68.0092 35.4447 67.987 35.4559 67.976 35.4782C67.4338 36.1038 67.124 36.9529 67.124 37.9248V37.936V37.9472C67.124 38.9191 67.4338 39.7681 67.976 40.3937C67.987 40.4161 68.0092 40.4273 68.0202 40.4496C68.0424 40.4831 68.0756 40.5055 68.0977 40.5278C68.662 41.1087 69.4586 41.4662 70.4322 41.4662C70.4433 41.4662 70.4654 41.4662 70.4765 41.4662C70.4876 41.4662 70.4986 41.4662 70.5097 41.4662C71.4059 41.4662 72.4017 41.0417 72.977 40.3267V41.3322H74.4707V41.321V34.5398V34.5287H73.154V34.5398ZM70.8084 40.1145C69.536 40.1145 68.6288 39.2096 68.6288 37.936C68.6288 36.6624 69.536 35.7575 70.8084 35.7575C72.0697 35.7575 72.966 36.6959 72.966 37.936C72.966 39.176 72.0587 40.1145 70.8084 40.1145Z" fill="#9F9F9F"/>
    <path d="M75.9863 34.4392V34.4504V44.3373V44.3485H77.48V40.2596C78.0553 40.9746 79.0622 41.4103 79.9584 41.4103C79.9695 41.4103 79.9805 41.4103 79.9916 41.4103C80.0027 41.4103 80.0248 41.4103 80.0358 41.4103C81.0095 41.4103 81.8061 41.0528 82.3815 40.4607C82.4036 40.4384 82.4368 40.4049 82.4589 40.3825C82.47 40.3602 82.4921 40.349 82.5032 40.3267C83.0564 39.7011 83.3551 38.852 83.3551 37.8689V37.8577V37.8466C83.3551 36.8746 83.0453 36.0144 82.5032 35.3888C82.4921 35.3665 82.47 35.3553 82.4589 35.333C82.4368 35.2994 82.4036 35.2771 82.3815 35.2548C81.8172 34.6627 81.0206 34.3052 80.0358 34.3052C80.0248 34.3052 80.0027 34.3052 79.9916 34.3052C79.9805 34.3052 79.9695 34.3052 79.9584 34.3052C79.0622 34.3052 78.0664 34.7297 77.48 35.4559L77.303 34.4392H75.9863ZM77.4911 37.8577C77.4911 36.6177 78.3873 35.6793 79.6597 35.6793C80.9321 35.6793 81.8504 36.5842 81.8504 37.8577C81.8504 39.1313 80.9431 40.0362 79.6597 40.0362C78.3983 40.0474 77.4911 39.0978 77.4911 37.8577Z" fill="#9F9F9F"/>
    <path d="M92.2952 40.0809C92.8263 40.0586 93.3795 39.7569 93.3795 38.6621V34.4951H98.7457V41.3992H97.252V35.8581H94.84V38.6956C94.84 40.606 93.7225 41.4774 92.2842 41.4439L92.2952 40.0809Z" fill="#9F9F9F"/>
    <path d="M87.8807 34.3611C85.8006 34.3611 84.2627 35.8693 84.2627 37.9137C84.2627 39.9581 85.8006 41.4662 87.8807 41.4662C89.9719 41.4662 91.4987 39.9692 91.4987 37.9137C91.4987 35.8804 89.9719 34.3611 87.8807 34.3611ZM87.8807 40.1033C86.6526 40.1033 85.7453 39.176 85.7453 37.9137C85.7453 36.6624 86.6526 35.724 87.8807 35.724C89.1199 35.724 90.0161 36.6513 90.0161 37.9137C90.0161 39.176 89.1199 40.1033 87.8807 40.1033Z" fill="#9F9F9F"/>
</svg>
